<svg width="24" height="24" viewBox="0 0 24 24" fill="none" xmlns="http://www.w3.org/2000/svg">
<path d="M14.8173 11.9983L23.409 3.42536C24.1925 2.64176 24.1925 1.3713 23.409 0.587699C22.6255 -0.1959 21.3552 -0.1959 20.5717 0.587699L12 9.18062L3.42828 0.587699C2.6448 -0.1959 1.37451 -0.1959 0.591025 0.587699C-0.192462 1.3713 -0.192462 2.64176 0.591025 3.42536L9.18272 11.9983L0.591025 20.5712C0.212766 20.9465 0 21.4572 0 21.9901C0 22.5229 0.212766 23.0337 0.591025 23.4089C0.966196 23.7872 1.47689 24 2.00965 24C2.54241 24 3.05311 23.7872 3.42828 23.4089L12 14.816L20.5717 23.4089C20.9469 23.7872 21.4576 24 21.9903 24C22.5231 24 23.0338 23.7872 23.409 23.4089C23.7872 23.0337 24 22.5229 24 21.9901C24 21.4572 23.7872 20.9465 23.409 20.5712L14.8173 11.9983Z" fill="#939393"/>
</svg>
