<svg width="80" height="80" viewBox="0 0 80 80" fill="none" xmlns="http://www.w3.org/2000/svg">
<path d="M44.6517 0C30.8678 0 18.4966 7.52547 12.6464 19.0695L10.5825 17.0055C10.4746 16.8955 10.3412 16.814 10.194 16.7684C10.0469 16.7227 9.89069 16.7143 9.7395 16.7439C9.56224 16.7838 9.40055 16.8748 9.27439 17.0055L2.41403 23.8659C0.708844 25.5709 -0.0352693 28.0042 0.00128116 30.7844C0.0378309 33.5645 0.840839 36.7277 2.26869 40.1447C5.12439 46.9789 10.52 54.7915 17.8498 62.1211C25.1793 69.4511 33.0207 74.8757 39.8553 77.7313C43.2726 79.1591 46.4353 79.9622 49.2156 79.9988C51.996 80.0351 54.429 79.2619 56.1341 77.5569L62.9945 70.7256C63.1667 70.5515 63.2632 70.3166 63.2632 70.0717C63.2632 69.8268 63.1667 69.5918 62.9945 69.4176L60.9306 67.3535C72.4706 61.5016 80 49.1294 80 35.3483C80 15.837 64.163 0 44.6517 0ZM44.6517 1.86041C63.1576 1.86041 78.1396 16.8424 78.1396 35.3483C78.1396 48.6598 70.6931 60.5207 59.5062 65.9292L50.0586 56.4817C49.8845 56.3095 49.6495 56.2129 49.4046 56.2129C49.1597 56.2129 48.9247 56.3095 48.7505 56.4817L41.7157 63.5164L16.4836 38.2843L23.5184 31.2495C23.6905 31.0753 23.7871 30.8403 23.7871 30.5954C23.7871 30.3505 23.6905 30.1156 23.5184 29.9414L14.0708 20.4939C19.4777 9.30286 31.3367 1.86041 44.6517 1.86041ZM44.5355 14.8544C44.3043 14.8834 44.0925 14.998 43.9418 15.1756C43.7911 15.3532 43.7125 15.5809 43.7215 15.8137V35.3483C43.7251 35.508 43.7698 35.6642 43.8513 35.8016C43.9327 35.9391 44.0482 36.0533 44.1866 36.1332L60.0004 45.4353C60.1055 45.5129 60.2258 45.5674 60.3535 45.5953C60.4811 45.6233 60.6132 45.624 60.7411 45.5975C60.8691 45.571 60.99 45.5179 61.096 45.4415C61.2021 45.3652 61.2908 45.2673 61.3565 45.1544C61.4222 45.0415 61.4634 44.9159 61.4774 44.786C61.4914 44.6561 61.4778 44.5247 61.4376 44.4004C61.3974 44.2761 61.3315 44.1616 61.2442 44.0644C61.1568 43.9673 61.0499 43.8897 60.9306 43.8365L45.582 34.796V15.8137C45.5872 15.6787 45.5631 15.5442 45.5111 15.4195C45.4591 15.2948 45.3806 15.1829 45.281 15.0916C45.1814 15.0003 45.0631 14.9318 44.9344 14.8908C44.8056 14.8499 44.6695 14.8375 44.5355 14.8544ZM9.94299 18.9532L21.5416 30.5809L14.5069 37.6157C14.3347 37.7898 14.2381 38.0248 14.2381 38.2697C14.2381 38.5146 14.3347 38.7497 14.5069 38.9238L41.0472 65.4641C41.2213 65.6363 41.4563 65.7328 41.7012 65.7328C41.9461 65.7328 42.1811 65.6363 42.3553 65.4641L49.39 58.4294L61.0178 70.0571L54.826 76.2489C53.5507 77.5239 51.6853 78.1704 49.2447 78.1383C46.8041 78.1067 43.8162 77.3797 40.553 76.0163C34.0265 73.2894 26.3715 67.9981 19.187 60.8131C12.0022 53.6284 6.71072 45.9441 3.98378 39.418C2.62031 36.155 1.8938 33.1956 1.86172 30.7553C1.82964 28.315 2.44684 26.4492 3.72215 25.174L9.94299 18.9532Z" fill="#BE9F7B"/>
</svg>
