<svg width="70" height="80" viewBox="0 0 70 80" fill="none" xmlns="http://www.w3.org/2000/svg">
<path d="M68.9913 6.70703C68.776 6.53863 68.4931 6.4783 68.2287 6.54514C63.4336 7.74479 59.4158 8.32769 55.9449 8.32769C55.9444 8.32769 55.944 8.32769 55.944 8.32769C48.2135 8.32726 42.8859 5.57726 35.1775 0.161458C34.8711 -0.0538194 34.4622 -0.0538194 34.1558 0.161458C26.4475 5.57769 21.1194 8.32769 13.3898 8.32769C9.91797 8.32769 5.89931 7.74436 1.1046 6.54514C0.841146 6.48003 0.557726 6.53906 0.342014 6.70703C0.126302 6.87543 0 7.13368 0 7.40755V35.9453C0 51.3472 7.83724 65.5677 19.9696 72.1758L34.3086 79.8937C34.4401 79.9644 34.5851 80 34.73 80C34.8759 80 35.0213 79.9644 35.1536 79.8928L49.3997 72.174C61.5087 65.5781 69.3333 51.3576 69.3333 35.9453V7.40755C69.3333 7.13368 69.207 6.87543 68.9913 6.70703ZM67.5556 35.9453C67.5556 50.7161 60.0951 64.3238 48.5508 70.6115L34.7287 78.1007L20.8164 70.6124C9.25087 64.3134 1.77778 50.7057 1.77778 35.9453V8.53863C6.23568 9.59201 10.0434 10.0235 13.3898 10.0235C21.3707 10.0235 27.0872 7.08702 34.6667 1.80968C42.2457 7.08702 47.9622 9.77778 55.9436 9.77778C55.944 9.77778 55.9444 9.77778 55.9449 9.77778C59.2899 9.77778 63.0977 9.59201 67.5556 8.53863V35.9453Z" fill="#BE9F7B"/>
<path d="M49.7776 24.8887H30.3175H23.5519H19.5554C19.0645 24.8887 18.6665 25.2867 18.6665 25.7776V49.7776C18.6665 50.2684 19.0645 50.6665 19.5554 50.6665H49.7776C50.2685 50.6665 50.6665 50.2684 50.6665 49.7776V25.7776C50.6665 25.2867 50.2685 24.8887 49.7776 24.8887ZM23.9998 26.6664H29.3332V30.222H23.9998V26.6664ZM48.8887 48.8887H20.4443V26.6664H22.2221V31.0423C22.2221 31.5332 23.061 31.9998 23.5519 31.9998H30.3175C30.8084 31.9998 31.1109 31.5332 31.1109 31.0423V26.6664H48.8887V48.8887Z" fill="#BE9F7B"/>
<path d="M48.889 57.7778H20.4446C19.9536 57.7778 19.5557 58.1758 19.5557 58.6667C19.5557 59.1576 19.9536 59.5556 20.4446 59.5556H48.889C49.3799 59.5556 49.7779 59.1576 49.7779 58.6667C49.7779 58.1758 49.3799 57.7778 48.889 57.7778Z" fill="#BE9F7B"/>
<path d="M10.6607 22.3232C10.7163 21.8358 10.3664 21.3948 9.8786 21.3388C9.39857 21.2833 8.95022 21.6331 8.89423 22.1209C8.80829 22.8696 6.84518 40.568 11.649 50.1752C11.8048 50.4868 12.1186 50.6665 12.445 50.6665C12.5783 50.6665 12.7141 50.6365 12.8417 50.5727C13.2809 50.3531 13.4589 49.8193 13.2393 49.38C8.67244 40.2468 10.6403 22.5016 10.6607 22.3232Z" fill="#BE9F7B"/>
<path d="M56.4917 50.5728C56.6193 50.6366 56.7551 50.6666 56.8884 50.6666C57.2147 50.6666 57.5285 50.4869 57.6844 50.1753C62.4882 40.5681 60.5251 22.8697 60.4391 22.121C60.3831 21.6332 59.9443 21.2829 59.4548 21.3389C58.9669 21.3949 58.6171 21.8358 58.6726 22.3233C58.693 22.5016 60.6609 40.2469 56.0941 49.3801C55.8745 49.8194 56.0524 50.3532 56.4917 50.5728Z" fill="#BE9F7B"/>
<path d="M19.5554 23.1112C20.0463 23.1112 20.4443 22.7132 20.4443 22.2223V18.6667C20.4443 18.1758 20.0463 17.7778 19.5554 17.7778C19.0645 17.7778 18.6665 18.1758 18.6665 18.6667V22.2223C18.6665 22.7132 19.0645 23.1112 19.5554 23.1112Z" fill="#BE9F7B"/>
<path d="M25.7778 23.1112C26.2687 23.1112 26.6667 22.7132 26.6667 22.2223V18.6667C26.6667 18.1758 26.2687 17.7778 25.7778 17.7778C25.2869 17.7778 24.8889 18.1758 24.8889 18.6667V22.2223C24.8889 22.7132 25.2869 23.1112 25.7778 23.1112Z" fill="#BE9F7B"/>
<path d="M32 23.1112C32.4909 23.1112 32.8889 22.7132 32.8889 22.2223V18.6667C32.8889 18.1758 32.4909 17.7778 32 17.7778C31.5091 17.7778 31.1111 18.1758 31.1111 18.6667V22.2223C31.1111 22.7132 31.5091 23.1112 32 23.1112Z" fill="#BE9F7B"/>
<path d="M37.3332 23.1112C37.8241 23.1112 38.2221 22.7132 38.2221 22.2223V18.6667C38.2221 18.1758 37.8241 17.7778 37.3332 17.7778C36.8423 17.7778 36.4443 18.1758 36.4443 18.6667V22.2223C36.4443 22.7132 36.8423 23.1112 37.3332 23.1112Z" fill="#BE9F7B"/>
<path d="M43.5554 23.1112C44.0463 23.1112 44.4443 22.7132 44.4443 22.2223V18.6667C44.4443 18.1758 44.0463 17.7778 43.5554 17.7778C43.0645 17.7778 42.6665 18.1758 42.6665 18.6667V22.2223C42.6665 22.7132 43.0645 23.1112 43.5554 23.1112Z" fill="#BE9F7B"/>
<path d="M49.7778 17.7778C49.2869 17.7778 48.8889 18.1758 48.8889 18.6667V22.2223C48.8889 22.7132 49.2869 23.1112 49.7778 23.1112C50.2687 23.1112 50.6667 22.7132 50.6667 22.2223V18.6667C50.6667 18.1758 50.2687 17.7778 49.7778 17.7778Z" fill="#BE9F7B"/>
<path d="M39.1111 45.3334H45.3333C45.8242 45.3334 46.2222 44.9354 46.2222 44.4446C46.2222 43.9537 45.8242 43.5557 45.3333 43.5557H39.1111C38.6202 43.5557 38.2222 43.9537 38.2222 44.4446C38.2222 44.9354 38.6202 45.3334 39.1111 45.3334Z" fill="#BE9F7B"/>
<path d="M34.6666 64.8887C32.7061 64.8887 31.1111 66.4837 31.1111 68.4442C31.1111 70.4047 32.7061 71.9998 34.6666 71.9998C36.6271 71.9998 38.2222 70.4047 38.2222 68.4442C38.2222 66.4837 36.6271 64.8887 34.6666 64.8887ZM34.6666 70.222C33.6862 70.222 32.8889 69.4247 32.8889 68.4442C32.8889 67.4638 33.6862 66.6664 34.6666 66.6664C35.6471 66.6664 36.4444 67.4638 36.4444 68.4442C36.4444 69.4247 35.6471 70.222 34.6666 70.222Z" fill="#BE9F7B"/>
</svg>
