<svg width="97" height="80" viewBox="0 0 97 80" fill="none" xmlns="http://www.w3.org/2000/svg">
<path d="M91.047 55.7981L75.108 51.4879V46.1453C78.278 43.3752 80.295 39.2951 80.295 34.7407V26.6007H81.871C83.93 26.6007 85.604 24.9992 85.604 23.0313V22.7023C85.604 20.7344 83.929 19.1329 81.871 19.1329H81.762C81.045 12.8044 76.77 7.31548 70.82 5.12961L70.552 4.02962L70.516 4.0387L70.299 3.15265C70.096 2.33017 69.569 1.53798 68.812 0.925409C68.077 0.32798 67.211 0 66.376 0H63.786C62.951 0 62.087 0.328989 61.352 0.925409C60.596 1.53697 60.068 2.32917 59.866 3.15467L59.387 5.11347C53.416 7.28924 49.124 12.7882 48.406 19.1329H48.298C46.239 19.1329 44.565 20.7344 44.565 22.7023V23.0303C44.565 24.9982 46.24 26.5997 48.298 26.5997H49.873V34.7397C49.873 39.4545 52.028 43.6688 55.394 46.439V51.4839L39.079 55.796C38.018 56.0756 37.064 56.5469 36.237 57.1604L34.993 56.8234V52.6444C37.601 50.3334 39.26 46.9537 39.26 43.1834V36.6672H40.379C42.17 36.6672 43.627 35.2695 43.627 33.5519V33.2804C43.627 31.585 42.206 30.2015 40.446 30.1671C39.8 24.9901 36.298 20.5164 31.437 18.6909L31.239 17.8785L31.21 17.8855L31.032 17.1569C30.856 16.4424 30.4 15.7572 29.747 15.2274C29.102 14.7036 28.371 14.4271 27.633 14.4271H25.503C24.766 14.4271 24.034 14.7036 23.389 15.2274C22.738 15.7562 22.282 16.4424 22.106 17.1579L21.734 18.6777C16.857 20.4952 13.341 24.981 12.694 30.1671C10.934 30.2015 9.513 31.585 9.513 33.2804V33.5519C9.513 35.2695 10.97 36.6672 12.761 36.6672H13.879V43.1834C13.879 47.0889 15.65 50.5847 18.422 52.8967V56.8193L5.134 60.3313C2.063 61.1436 0 63.8028 0 66.9474V79.998H2V66.9474C2 64.7343 3.462 62.8602 5.638 62.285L9.871 61.1669V64.047H8.226V69.4027H9.872V71.5189H7.402L7.411 80L9.411 79.998L9.404 73.5373H11.871V69.4027H13.983V73.5373H33V79.4944H35V63.6282C35 60.8369 36.843 58.4754 39.584 57.7488L45 56.3178V60.3191H43V66.3944H45V69.4017H41.999L42.009 79.4944L44.009 79.4924L44.001 71.42H47V66.3944H50V71.42H80V66.3944H82.956L82.936 71.4241L86.016 71.421L86.146 79.5106L88.146 79.4772L87.983 69.4017L84.944 69.4047L84.956 66.3954H87V60.3202H84.98L84.997 56.2532L90.529 57.7488C93.203 58.4724 95 60.8358 95 63.6292V79.4944H97V63.6282C97 59.9094 94.607 56.7618 91.047 55.7981ZM46.563 23.0313V22.7023C46.563 21.8465 47.34 21.1512 48.296 21.1512H50.268V21.1492H61.32V19.1308H50.422C51.071 14.1022 54.274 9.71327 58.792 7.55566L57.514 12.8054L59.455 13.2867L61.529 4.77035L61.806 3.63907C61.902 3.24751 62.193 2.83173 62.604 2.49871C62.985 2.18889 63.404 2.01834 63.785 2.01834H66.375C66.756 2.01834 67.177 2.18889 67.559 2.49871C67.97 2.83173 68.261 3.24751 68.357 3.63907L69.101 6.67768L69.14 6.6908L70.746 13.2878L72.687 12.8064L71.414 7.57584C76.228 9.89189 79.54 14.746 79.845 20.1996L79.898 21.1512H81.871C82.827 21.1512 83.604 21.8465 83.604 22.7023V23.0303C83.604 23.8861 82.827 24.5814 81.871 24.5814H48.296C47.34 24.5824 46.563 23.8861 46.563 23.0313ZM11.511 33.5529V33.2814C11.511 32.6769 12.071 32.1855 12.759 32.1855H14.549V32.1835H23.473V30.1651H14.715C15.282 26.299 17.707 22.9163 21.133 21.1462L20.17 25.0981L22.111 25.5795L23.79 18.6858L24.045 17.6454C24.115 17.3598 24.332 17.052 24.64 16.8017C24.922 16.5726 25.229 16.4465 25.501 16.4465H27.631C27.904 16.4465 28.211 16.5726 28.492 16.8017C28.802 17.053 29.018 17.3608 29.089 17.6433L29.723 20.2399L29.757 20.251L31.055 25.5795L32.996 25.0981L32.038 21.1663C35.757 23.104 38.294 26.9408 38.534 31.2338L38.587 32.1855H40.377C41.065 32.1855 41.625 32.6769 41.625 33.2814V33.5529C41.625 34.1584 41.065 34.6499 40.377 34.6499H12.759C12.07 34.6499 11.511 34.1584 11.511 33.5529ZM15.877 43.1844V37.0053H37.258V43.1844C37.258 49.0185 32.555 53.7646 26.775 53.7646H26.362C20.58 53.7656 15.877 49.0195 15.877 43.1844ZM26.361 55.7839H26.774C29.039 55.7839 31.158 55.1633 32.991 54.0946V57.0999L26.781 62.2517L20.42 57.1423V54.2621C22.188 55.2329 24.212 55.7839 26.361 55.7839ZM11.871 60.637L13.983 60.078V64.046H11.871V60.637ZM10.226 66.0644H15.629V67.3833H10.226V66.0644ZM15.983 71.5169V69.4007H17.629V64.045H15.983V59.5492L19.16 58.7095L26.801 64.8463L34.207 58.7014L34.585 58.8034C33.578 60.1547 33 61.8218 33 63.6272V71.5159H15.983V71.5169ZM51.871 34.7407V27.0105H78.294V34.7407C78.294 41.9522 72.481 47.8196 65.334 47.8196H64.832C57.686 47.8196 51.871 41.9533 51.871 34.7407ZM64.832 49.8379H65.334C68.183 49.8379 70.839 49.0164 73.107 47.6157V51.7584L65.343 58.1989L57.392 51.8139V47.8206C59.587 49.0962 62.123 49.8379 64.832 49.8379ZM47 55.789L50 54.9958V60.3191H47V55.789ZM45 62.3375H52V64.376H45V62.3375ZM78 69.4017H52V66.3944H54V60.3191H52V54.467L56.127 53.3771L65.365 60.7955L74.319 53.366L78 54.36V60.3181H76V66.3933H78V69.4017ZM85 64.375H78V62.3365H85V64.375ZM82.98 60.3191H80V54.9019L82.999 55.7123L82.98 60.3191Z" fill="#BE9F7B"/>
</svg>
