<svg width="73" height="80" viewBox="0 0 73 80" fill="none" xmlns="http://www.w3.org/2000/svg">
<path d="M43.7658 29.109C42.748 29.109 41.7302 28.7019 41.0177 27.9894C40.1017 27.1752 39.6946 26.0556 39.6946 24.936V10.1777H41.7302V24.936C41.7302 25.5467 41.9338 26.0556 42.4427 26.4627C42.8498 26.8698 43.4605 27.0734 44.0712 26.9716L56.9974 25.7503L57.2009 27.7859L44.173 29.109C43.9694 29.109 43.8676 29.109 43.7658 29.109Z" fill="#BE9F7B"/>
<path d="M51.2977 79.9999H7.12468C3.15522 79.9999 0 76.8446 0 72.8752V16.2848C0 12.3154 3.15522 9.16016 7.12468 9.16016H41.2214L58.4224 26.3612V72.9769C58.4224 76.8446 55.1654 79.9999 51.2977 79.9999ZM7.12468 11.1958C4.27481 11.1958 2.03562 13.435 2.03562 16.2848V72.9769C2.03562 75.8268 4.27481 78.066 7.12468 78.066H51.1959C54.0458 78.066 56.285 75.8268 56.285 72.9769V27.1754L40.4071 11.1958H7.12468Z" fill="#BE9F7B"/>
<path d="M58.0156 19.9489C56.9978 19.9489 55.98 19.5417 55.2675 18.8293C54.3515 18.015 53.9443 16.8954 53.9443 15.7758V1.01758H55.98V15.7758C55.98 16.3865 56.1835 16.8954 56.6924 17.3026C57.0996 17.7097 57.7102 17.9133 58.3209 17.8115L71.2471 16.5901L71.4507 18.6257L58.4227 19.9489C58.2191 19.9489 58.1174 19.9489 58.0156 19.9489Z" fill="#BE9F7B"/>
<path d="M65.547 70.8397H57.4045V68.8041H65.547C68.3968 68.8041 70.636 66.5649 70.636 63.715V17.9135L54.6564 2.03562H21.3739C18.5241 2.03562 16.2849 4.27481 16.2849 7.12468V10.1781H14.2493V7.12468C14.2493 3.15522 17.4045 0 21.3739 0H55.4706L72.6717 17.201V63.8168C72.6717 67.6845 69.4147 70.8397 65.547 70.8397Z" fill="#BE9F7B"/>
</svg>
