<svg width="80" height="80" viewBox="0 0 80 80" fill="none" xmlns="http://www.w3.org/2000/svg">
<path d="M40 80C62.0723 80 80 62.0723 80 40C80 17.9277 62.0723 0 40 0C17.9277 0 0 17.9277 0 40C0 62.0723 17.9277 80 40 80ZM40 1.92771C61.0121 1.92771 78.0723 18.988 78.0723 40C78.0723 61.0121 61.0121 78.0723 40 78.0723C18.988 78.0723 1.92771 61.0121 1.92771 40C1.92771 18.988 18.988 1.92771 40 1.92771Z" fill="#BE9F7B"/>
<path d="M40.4819 41.3495L40.9639 40.482V9.15674H39.0362V39.9037L20.7229 49.2531L21.6868 50.9881L40.4819 41.3495Z" fill="#BE9F7B"/>
</svg>
