<svg width="99" height="71" viewBox="0 0 99 71" fill="none" xmlns="http://www.w3.org/2000/svg">
<path d="M54.2986 60.0458H33.6258V58.3877H52.6406V2.42412H8.28774C4.63205 2.42412 1.658 5.3994 1.658 9.05675V52.1816C1.658 55.6038 4.44304 58.3875 7.86661 58.3875H14.4068V60.0456H7.86661C3.52885 60.0456 0 56.5179 0 52.1816V9.05675C0 4.48522 3.71787 0.766113 8.28774 0.766113H54.2986V60.0458Z" fill="#BE9F7B"/>
<path d="M98.9991 60.0464H85.7634V58.3884H97.341V34.3142L80.2879 11.9461H53.4686V10.2881H81.1088L98.9991 33.7544V60.0464ZM64.846 60.0464H52.564V58.3884H64.846V60.0464Z" fill="#BE9F7B"/>
<path d="M88.5318 41.7209H60.8943V18.6946L79.1837 18.4531L88.5318 29.7292V41.7209ZM62.5523 40.0629H86.874V30.3271L78.4132 20.1213L62.5525 20.3308V40.0629H62.5523Z" fill="#BE9F7B"/>
<path d="M75.368 70.7027C69.2038 70.7027 64.1887 65.6866 64.1887 59.5211C64.1887 53.3585 69.2038 48.3447 75.368 48.3447C81.5302 48.3447 86.5438 53.3583 86.5438 59.5211C86.5438 65.6864 81.5304 70.7027 75.368 70.7027ZM75.368 50.0027C70.118 50.0027 65.8467 54.2727 65.8467 59.5211C65.8467 64.7724 70.118 69.0447 75.368 69.0447C80.616 69.0447 84.8858 64.7724 84.8858 59.5211C84.8858 54.2725 80.6162 50.0027 75.368 50.0027Z" fill="#BE9F7B"/>
<path d="M24.0346 70.7027C17.872 70.7027 12.8584 65.6866 12.8584 59.5211C12.8584 53.3585 17.872 48.3447 24.0346 48.3447C30.2003 48.3447 35.2164 53.3583 35.2164 59.5211C35.2164 65.6864 30.2003 70.7027 24.0346 70.7027ZM24.0346 50.0027C18.7862 50.0027 14.5164 54.2727 14.5164 59.5211C14.5164 64.7724 18.7862 69.0447 24.0346 69.0447C29.2859 69.0447 33.5584 64.7724 33.5584 59.5211C33.5584 54.2725 29.2859 50.0027 24.0346 50.0027Z" fill="#BE9F7B"/>
<path d="M13.6413 11.8955H1.4707V13.5535H13.6413V11.8955Z" fill="#BE9F7B"/>
<path d="M13.6413 17.4609H1.4707V19.1189H13.6413V17.4609Z" fill="#BE9F7B"/>
<path d="M13.6413 23.0264H1.4707V24.6844H13.6413V23.0264Z" fill="#BE9F7B"/>
</svg>
