<svg width="54" height="54" viewBox="0 0 54 54" fill="none" xmlns="http://www.w3.org/2000/svg">
<circle cx="27" cy="27" r="27" fill="#BE9F7B"/>
<path d="M27.5 21.6094C24.5 21.6094 22.1094 24.0469 22.1094 27C22.1094 30 24.5 32.3906 27.5 32.3906C30.4531 32.3906 32.8906 30 32.8906 27C32.8906 24.0469 30.4531 21.6094 27.5 21.6094ZM27.5 30.5156C25.5781 30.5156 23.9844 28.9688 23.9844 27C23.9844 25.0781 25.5312 23.5312 27.5 23.5312C29.4219 23.5312 30.9688 25.0781 30.9688 27C30.9688 28.9688 29.4219 30.5156 27.5 30.5156ZM34.3438 21.4219C34.3438 20.7188 33.7812 20.1562 33.0781 20.1562C32.375 20.1562 31.8125 20.7188 31.8125 21.4219C31.8125 22.125 32.375 22.6875 33.0781 22.6875C33.7812 22.6875 34.3438 22.125 34.3438 21.4219ZM37.9062 22.6875C37.8125 21 37.4375 19.5 36.2188 18.2812C35 17.0625 33.5 16.6875 31.8125 16.5938C30.0781 16.5 24.875 16.5 23.1406 16.5938C21.4531 16.6875 20 17.0625 18.7344 18.2812C17.5156 19.5 17.1406 21 17.0469 22.6875C16.9531 24.4219 16.9531 29.625 17.0469 31.3594C17.1406 33.0469 17.5156 34.5 18.7344 35.7656C20 36.9844 21.4531 37.3594 23.1406 37.4531C24.875 37.5469 30.0781 37.5469 31.8125 37.4531C33.5 37.3594 35 36.9844 36.2188 35.7656C37.4375 34.5 37.8125 33.0469 37.9062 31.3594C38 29.625 38 24.4219 37.9062 22.6875ZM35.6562 33.1875C35.3281 34.125 34.5781 34.8281 33.6875 35.2031C32.2812 35.7656 29 35.625 27.5 35.625C25.9531 35.625 22.6719 35.7656 21.3125 35.2031C20.375 34.8281 19.6719 34.125 19.2969 33.1875C18.7344 31.8281 18.875 28.5469 18.875 27C18.875 25.5 18.7344 22.2188 19.2969 20.8125C19.6719 19.9219 20.375 19.2188 21.3125 18.8438C22.6719 18.2812 25.9531 18.4219 27.5 18.4219C29 18.4219 32.2812 18.2812 33.6875 18.8438C34.5781 19.1719 35.2812 19.9219 35.6562 20.8125C36.2188 22.2188 36.0781 25.5 36.0781 27C36.0781 28.5469 36.2188 31.8281 35.6562 33.1875Z" fill="#F4F4F4"/>
</svg>
